<?xml version="1.0" encoding="UTF-8" standalone="no"?>
<!DOCTYPE svg PUBLIC "-//W3C//DTD SVG 1.1//EN" "http://www.w3.org/Graphics/SVG/1.1/DTD/svg11.dtd">
<svg width="100%" height="100%" viewBox="0 0 32 32" version="1.1" xmlns="http://www.w3.org/2000/svg" xmlns:xlink="http://www.w3.org/1999/xlink" xml:space="preserve" xmlns:serif="http://www.serif.com/" style="fill-rule:evenodd;clip-rule:evenodd;stroke-linejoin:round;stroke-miterlimit:2;">
    <path d="M19.422,4.007C19.422,4.007 25.639,7.561 27.266,13.207C28.732,18.307 27.558,20.741 27.558,20.741C28.308,21.558 28.899,22.507 29.3,23.541C30.118,24.888 30.226,26.553 29.59,27.994C28.954,29.435 29.49,25.914 26.39,25.483C23.549,25.083 22.516,27.849 17.09,27.715C10.991,27.599 5.332,24.463 2,19.354C4.651,20.8 8.124,23.045 12.449,22.7C16.774,22.355 17.677,21.026 17.677,21.026C12.816,17.179 8.512,12.675 4.891,7.643C8.291,10.488 16.713,16.15 16.517,16.006C13.436,12.996 10.618,9.729 8.092,6.24C5.566,2.751 20.728,16.629 21.745,16.563C22.163,15.702 24.324,11.245 19.421,4.006L19.422,4.007Z" style="fill:rgb(242,133,68);fill-rule:nonzero;stroke:rgb(49,78,85);stroke-width:1px;"/>
</svg>
