<?xml version="1.0" encoding="UTF-8" standalone="no"?>
<!DOCTYPE svg PUBLIC "-//W3C//DTD SVG 1.1//EN" "http://www.w3.org/Graphics/SVG/1.1/DTD/svg11.dtd">
<svg width="100%" height="100%" viewBox="0 0 32 32" version="1.1" xmlns="http://www.w3.org/2000/svg" xmlns:xlink="http://www.w3.org/1999/xlink" xml:space="preserve" xmlns:serif="http://www.serif.com/" style="fill-rule:evenodd;clip-rule:evenodd;stroke-linejoin:round;stroke-miterlimit:2;">
    <g transform="matrix(0.541573,0,0,0.541573,-3.6302,-2.16195)">
        <path d="M39.06,20.618L38.355,19.909L38.353,19.911L39.06,20.618ZM39.071,13.535L38.364,14.243L39.071,13.535ZM31.293,12.828C30.903,13.219 30.903,13.852 31.293,14.243C31.684,14.633 32.317,14.633 32.708,14.243L31.293,12.828ZM36.243,13.535L35.536,14.243L36.243,13.535ZM36.243,17.778L35.536,17.071L36.243,17.778ZM32.79,21.232L33.494,21.941L33.497,21.939L32.79,21.232ZM32.778,21.243L33.485,21.95L32.778,21.243ZM32.778,28.314L32.071,29.021L32.778,28.314ZM40.556,29.021C40.947,28.631 40.947,27.997 40.556,27.607C40.166,27.216 39.533,27.216 39.142,27.607L40.556,29.021ZM35.607,28.314L36.314,27.607L35.607,28.314ZM35.607,24.071L36.314,24.778L35.607,24.071ZM39.765,21.327C39.769,21.323 39.774,21.318 39.779,21.314L38.364,19.899C38.361,19.902 38.358,19.905 38.355,19.909L39.765,21.327ZM39.779,21.314C42.122,18.97 42.122,15.171 39.779,12.828L38.364,14.243C39.926,15.805 39.926,18.337 38.364,19.899L39.779,21.314ZM39.779,12.828C37.435,10.485 33.636,10.485 31.293,12.828L32.707,14.243C34.27,12.68 36.802,12.68 38.364,14.243L39.779,12.828ZM32.708,14.243C33.489,13.462 34.755,13.462 35.536,14.243L36.95,12.828C35.388,11.266 32.855,11.266 31.293,12.828L32.708,14.243ZM35.536,14.243C36.317,15.024 36.317,16.29 35.536,17.071L36.95,18.485C38.512,16.923 38.512,14.39 36.95,12.828L35.536,14.243ZM35.536,17.071L32.083,20.524L33.497,21.939L36.95,18.485L35.536,17.071ZM32.085,20.522C32.08,20.527 32.076,20.531 32.071,20.536L33.485,21.95C33.488,21.947 33.491,21.944 33.494,21.941L32.085,20.522ZM32.071,20.536C29.728,22.879 29.728,26.678 32.071,29.021L33.485,27.607C31.923,26.045 31.923,23.512 33.485,21.95L32.071,20.536ZM32.071,29.021C34.414,31.364 38.213,31.364 40.556,29.021L39.142,27.607C37.58,29.169 35.047,29.169 33.485,27.607L32.071,29.021ZM39.142,27.607C38.361,28.388 37.095,28.388 36.314,27.607L34.9,29.021C36.462,30.583 38.994,30.583 40.556,29.021L39.142,27.607ZM36.314,27.607C35.533,26.826 35.533,25.559 36.314,24.778L34.9,23.364C33.337,24.926 33.337,27.459 34.9,29.021L36.314,27.607ZM36.314,24.778L39.767,21.325L38.353,19.911L34.9,23.364L36.314,24.778Z" style="fill-rule:nonzero;stroke:rgb(49,79,85);stroke-width:1.85px;"/>
    </g>
    <g transform="matrix(0.541573,0,0,0.541573,-3.6302,-2.16195)">
        <path d="M36,52C45.941,52 54,43.941 54,34L18,34C18,43.941 26.059,52 36,52Z" style="fill:white;"/>
    </g>
    <g transform="matrix(0.541573,0,0,0.541573,-3.6302,-2.16195)">
        <path d="M54,34L55,34C55,33.448 54.552,33 54,33L54,34ZM18,34L18,33C17.448,33 17,33.448 17,34L18,34ZM53,34C53,43.389 45.389,51 36,51L36,53C46.493,53 55,44.493 55,34L53,34ZM18,35L54,35L54,33L18,33L18,35ZM36,51C26.611,51 19,43.389 19,34L17,34C17,44.493 25.507,53 36,53L36,51Z" style="fill:white;fill-rule:nonzero;"/>
    </g>
    <g transform="matrix(0.541573,0,0,0.541573,-3.6302,-2.16195)">
        <path d="M15.87,55C15.591,55 15.325,54.884 15.138,54.676C14.238,53.671 13.409,52.601 12.66,51.473C12.234,50.831 12.709,50 13.48,50L58.52,50C59.291,50 59.766,50.831 59.34,51.473C58.591,52.601 57.762,53.671 56.862,54.676C56.675,54.884 56.408,55 56.13,55L15.87,55Z" style="fill:white;"/>
    </g>
    <g transform="matrix(0.541573,0,0,0.541573,-3.6302,-2.16195)">
        <path d="M48.04,50C48.765,50 49.247,50.748 48.917,51.393C48.342,52.514 47.707,53.579 47.017,54.58C46.835,54.845 46.531,55 46.209,55L56.13,55C56.409,55 56.675,54.884 56.862,54.676C57.762,53.671 58.591,52.601 59.34,51.473C59.766,50.831 59.291,50 58.52,50L48.04,50Z" style="fill:rgb(208,207,206);"/>
    </g>
    <g transform="matrix(0.541573,0,0,0.541573,-3.6302,-2.16195)">
        <path d="M44.254,50C50.043,47.008 54,40.966 54,34L47,34C47,40.966 44.582,47.008 41.044,50L44.254,50Z" style="fill:rgb(208,207,206);"/>
    </g>
    <g transform="matrix(0.541573,0,0,0.541573,-3.6302,-2.16195)">
        <path d="M54,34L55,34L55,33L54,33L54,34ZM44.254,50L44.254,51L44.498,51L44.714,50.888L44.254,50ZM47,34L47,33L46,33L46,34L47,34ZM41.044,50L40.399,49.237L38.314,51L41.044,51L41.044,50ZM53,34C53,40.577 49.265,46.284 43.795,49.112L44.714,50.888C50.821,47.731 55,41.354 55,34L53,34ZM47,35L54,35L54,33L47,33L47,35ZM41.69,50.764C45.526,47.519 48,41.147 48,34L46,34C46,40.784 43.638,46.497 40.399,49.237L41.69,50.764ZM44.254,49L41.044,49L41.044,51L44.254,51L44.254,49Z" style="fill:rgb(208,207,206);fill-rule:nonzero;"/>
    </g>
    <g transform="matrix(0.541573,0,0,0.541573,-3.6302,-2.16195)">
        <path d="M35.607,24.071L39.071,20.607C41.024,18.654 41.024,15.488 39.071,13.535C37.119,11.583 33.953,11.583 32,13.535C33.172,12.364 35.071,12.364 36.243,13.535C37.415,14.707 37.415,16.607 36.243,17.778L32.778,21.243C30.826,23.196 30.826,26.361 32.778,28.314C34.731,30.267 37.897,30.267 39.849,28.314C38.678,29.486 36.778,29.486 35.607,28.314C34.435,27.142 34.435,25.243 35.607,24.071Z" style="fill:rgb(208,207,206);"/>
    </g>
    <g transform="matrix(0.541573,0,0,0.541573,-3.6302,-2.16195)">
        <path d="M39.06,20.618L38.355,19.909L38.353,19.911L39.06,20.618ZM39.071,13.535L38.364,14.243L39.071,13.535ZM31.293,12.828C30.903,13.219 30.903,13.852 31.293,14.243C31.684,14.633 32.317,14.633 32.708,14.243L31.293,12.828ZM36.243,13.535L35.536,14.243L36.243,13.535ZM36.243,17.778L35.536,17.071L36.243,17.778ZM32.79,21.232L33.494,21.941L33.497,21.939L32.79,21.232ZM32.778,21.243L33.485,21.95L32.778,21.243ZM32.778,28.314L32.071,29.021L32.778,28.314ZM40.556,29.021C40.947,28.631 40.947,27.997 40.556,27.607C40.166,27.216 39.533,27.216 39.142,27.607L40.556,29.021ZM35.607,28.314L36.314,27.607L35.607,28.314ZM35.607,24.071L36.314,24.778L35.607,24.071ZM39.765,21.327C39.769,21.323 39.774,21.318 39.779,21.314L38.364,19.899C38.361,19.902 38.358,19.906 38.355,19.909L39.765,21.327ZM39.779,21.314C42.122,18.971 42.122,15.172 39.779,12.828L38.364,14.243C39.926,15.805 39.926,18.337 38.364,19.899L39.779,21.314ZM39.779,12.828C37.435,10.485 33.636,10.485 31.293,12.828L32.707,14.243C34.27,12.681 36.802,12.681 38.364,14.243L39.779,12.828ZM32.708,14.243C33.489,13.462 34.755,13.462 35.536,14.243L36.95,12.828C35.388,11.266 32.855,11.266 31.293,12.828L32.708,14.243ZM35.536,14.243C36.317,15.024 36.317,16.29 35.536,17.071L36.95,18.485C38.512,16.923 38.512,14.39 36.95,12.828L35.536,14.243ZM35.536,17.071L32.083,20.524L33.497,21.939L36.95,18.485L35.536,17.071ZM32.085,20.522C32.08,20.527 32.076,20.531 32.071,20.536L33.485,21.95C33.488,21.947 33.491,21.944 33.494,21.941L32.085,20.522ZM32.071,20.536C29.728,22.879 29.728,26.678 32.071,29.021L33.485,27.607C31.923,26.045 31.923,23.512 33.485,21.95L32.071,20.536ZM32.071,29.021C34.414,31.364 38.213,31.364 40.556,29.021L39.142,27.607C37.58,29.169 35.047,29.169 33.485,27.607L32.071,29.021ZM39.142,27.607C38.361,28.388 37.095,28.388 36.314,27.607L34.9,29.021C36.462,30.583 38.994,30.583 40.556,29.021L39.142,27.607ZM36.314,27.607C35.533,26.826 35.533,25.559 36.314,24.778L34.9,23.364C33.337,24.926 33.337,27.459 34.9,29.021L36.314,27.607ZM36.314,24.778L39.767,21.325L38.353,19.911L34.9,23.364L36.314,24.778Z" style="fill:rgb(208,207,206);fill-rule:nonzero;"/>
    </g>
    <g transform="matrix(0.541573,0,0,0.541573,-3.6302,-2.16195)">
        <path d="M24,47.417C20.318,44.121 18,39.331 18,34L54,34C54,39.331 51.683,44.121 48,47.417" style="fill:none;fill-rule:nonzero;stroke:rgb(49,79,85);stroke-width:2px;stroke-linecap:round;stroke-miterlimit:4;"/>
    </g>
    <g transform="matrix(0.541573,0,0,0.541573,-3.6302,-2.16195)">
        <path d="M56.862,54.676L56.117,54.009L56.862,54.676ZM59.34,51.473L60.173,52.026L59.34,51.473ZM15.138,54.676L14.394,55.344L15.138,54.676ZM15.883,54.009C15.015,53.04 14.215,52.007 13.493,50.92L11.827,52.026C12.603,53.194 13.461,54.303 14.394,55.344L15.883,54.009ZM13.48,51L58.52,51L58.52,49L13.48,49L13.48,51ZM58.507,50.92C57.785,52.007 56.985,53.04 56.117,54.009L57.606,55.344C58.539,54.303 59.397,53.194 60.173,52.026L58.507,50.92ZM56.13,54L15.87,54L15.87,56L56.13,56L56.13,54ZM56.117,54.009C56.121,54.005 56.125,54.002 56.128,54.001C56.13,54 56.131,54 56.13,54L56.13,56C56.684,56 57.225,55.769 57.606,55.344L56.117,54.009ZM58.52,51C58.526,51 58.527,51.001 58.525,51C58.523,51 58.521,50.999 58.518,50.997C58.513,50.994 58.51,50.99 58.507,50.986C58.505,50.981 58.5,50.97 58.5,50.953C58.5,50.944 58.502,50.935 58.504,50.927C58.507,50.92 58.509,50.917 58.507,50.92L60.173,52.026C61.072,50.674 60.032,49 58.52,49L58.52,51ZM13.493,50.92C13.491,50.917 13.493,50.92 13.496,50.927C13.498,50.935 13.5,50.944 13.5,50.953C13.5,50.97 13.495,50.981 13.493,50.986C13.49,50.99 13.487,50.994 13.482,50.997C13.479,50.999 13.477,51 13.475,51C13.473,51.001 13.474,51 13.48,51L13.48,49C11.968,49 10.928,50.673 11.827,52.026L13.493,50.92ZM14.394,55.344C14.775,55.769 15.316,56 15.87,56L15.87,54C15.869,54 15.87,54 15.872,54.001C15.875,54.002 15.879,54.005 15.883,54.009L14.394,55.344Z" style="fill:rgb(49,79,85);fill-rule:nonzero;"/>
    </g>
    <g transform="matrix(0.541573,0,0,0.541573,-3.6302,-2.16195)">
        <path d="M51,45L55.5,45C58.538,45 61,42.538 61,39.5C61,36.462 58.538,34 55.5,34L53,34" style="fill:none;fill-rule:nonzero;stroke:rgb(49,79,85);stroke-width:2px;stroke-linecap:round;stroke-linejoin:miter;stroke-miterlimit:4;"/>
    </g>
<div xmlns="" id="immersive-translate-popup" style="all: initial"/></svg>