<?xml version="1.0" encoding="UTF-8" standalone="no"?>
<!DOCTYPE svg PUBLIC "-//W3C//DTD SVG 1.1//EN" "http://www.w3.org/Graphics/SVG/1.1/DTD/svg11.dtd">
<svg width="100%" height="100%" viewBox="0 0 1024 1024" version="1.1" xmlns="http://www.w3.org/2000/svg" xmlns:xlink="http://www.w3.org/1999/xlink" xml:space="preserve" xmlns:serif="http://www.serif.com/" style="fill-rule:evenodd;clip-rule:evenodd;stroke-linejoin:round;stroke-miterlimit:2;">
    <g transform="matrix(1,0,0,1,39.0336,26.8624)">
        <path d="M708.345,538.143C692.865,551.051 683.326,557.819 672.327,568.462C649.03,591.008 629.692,617.45 604.75,638.316C572.549,665.256 537.639,688.234 495.872,696.777C432.12,709.817 372.827,698.84 321.551,657.035C288.463,630.058 267.332,595.563 259.77,552.654C250.957,502.645 263.967,460.135 298.234,423.105C327.565,391.409 358.292,361.127 388.834,330.637C403.281,316.215 416.325,300.34 433.295,288.606C454.68,273.82 477.73,264.425 504.255,263.057C547.168,260.843 590.084,261.669 632.962,262.304C656.13,262.647 675.881,274.226 693.008,289.719C693.759,290.398 694.36,291.251 694.989,292.055C707.382,307.889 706.293,318.657 690.727,331.368C680.704,339.552 669.158,343.716 656.121,343.707C620.095,343.683 584.068,343.603 548.043,343.848C538.373,343.914 528.619,344.446 519.066,345.861C504.892,347.961 492.987,355.645 483.514,365.7C456.023,394.881 425.816,421.399 399.602,451.817C392.103,460.52 383.473,468.288 376.218,477.126C363.698,492.377 360.506,507.513 362.315,525.586C365.63,558.695 384.292,585.416 408.367,606.602C422.878,619.372 438.786,625.482 444.464,627.182C496.105,642.638 541.619,628.522 583.69,597.85C603.041,583.743 620.009,566.483 639.722,552.734C653.861,542.872 669.434,535.862 685.907,530.839C690.48,529.445 728.326,528.796 708.345,538.143Z" style="fill:url(#_Linear1);"/>
    </g>
    <g transform="matrix(1.53358,0,0,1.53358,-252.123,-196.377)">
        <path d="M600.968,572.97C576.901,595.776 550.348,613.481 517.76,620.848C494.325,626.146 470.886,626.402 447.595,620.809C432.155,617.102 417.248,611.202 404.168,602.231C396.542,597.001 389.546,596.674 381.349,598.648C367.371,602.016 367.339,601.886 367.346,616.334C367.347,617.667 367.421,619.005 367.341,620.333C367.168,623.198 367.983,624.622 371.322,624.324C374.437,624.045 377.66,624.309 380.769,624.772C386.572,625.635 390.255,629.183 392.265,634.631C393.75,638.655 393.109,642.12 389.942,645.094C385.855,648.932 381.397,647.571 376.885,646.151C373.309,645.026 370.799,641.645 366.325,641.097C367.271,645.031 367.527,648.628 367.324,652.242C366.973,658.466 363.64,662.26 358.5,662.346C353.202,662.434 349.122,658.424 348.85,652.373C348.725,649.588 349.413,646.772 349.673,643.964C349.998,640.458 348.33,639.682 345.479,641.231C343.592,642.256 341.889,643.632 340.138,644.897C335.63,648.152 331.353,648.018 327.443,644.464C323.528,640.905 322.955,636.594 325.89,631.914C329.964,625.417 335.879,622.217 343.536,622.757C347.335,623.025 348.799,621.759 349.177,617.865C349.63,613.198 349.553,608.55 349.704,603.895C349.96,596.016 352.406,589.218 358.992,584.345C362.995,581.383 366.946,578.348 370.972,575.307C371.359,573.981 370.305,573.208 369.575,572.381C354.274,555.036 343.546,535.217 339.389,512.447C333.385,479.562 339.04,448.899 359.347,421.65C369.524,407.994 381.379,395.794 392.88,383.289C393.772,382.32 394.597,381.289 395.427,380.318C394.952,377.607 392.626,376.956 390.882,375.885C379.615,368.966 373.357,359.659 374.508,345.742C375.246,336.827 374.601,336.904 365.362,335.229C360.6,334.365 355.945,332.983 352.76,328.806C349.465,324.485 349.781,318.822 353.609,315.268C357.813,311.365 362.382,311.563 366.877,315.838C368.444,317.328 369.987,318.846 371.605,320.278C372.068,320.687 372.757,320.842 373.533,321.201C375.415,318.899 374.519,316.324 374.619,313.982C374.873,308.006 378.333,303.765 383.247,303.686C388.526,303.601 391.309,307.118 391.346,313.936C391.359,316.412 391.348,318.887 391.348,321.938C394.838,320.555 395.706,317.448 397.564,315.352C403.403,308.763 411.801,309.252 415.309,316.48C416.059,318.024 416.394,319.526 415.806,321.277C413.535,328.043 404.925,334.111 398.024,333.106C394.269,332.559 393.385,333.742 393.281,337.201C393.144,341.741 393.97,346.147 394.466,350.598C394.786,353.466 396.569,355.559 399.18,356.616C403.34,358.3 407.621,359.681 411.83,361.247C414.359,362.188 415.971,360.708 417.535,359.18C427.186,349.75 436.757,340.239 446.458,330.861C467.98,310.056 492.997,297.624 523.638,297.549C549.457,297.486 575.291,295.838 601.094,296.817C623.7,297.676 643.123,306.8 658.183,323.821C669.391,336.487 668.2,354.148 658.584,367.973C646.742,384.995 630.255,390.271 611.091,390.232C584.435,390.178 557.775,390.761 531.12,389.854C526.424,389.694 523.293,393.358 519.976,395.993C516.501,398.754 513.699,402.33 509.616,405.155C513.493,408.593 516.05,412.599 518.647,416.595C520.819,419.936 524.361,418.482 527.383,418.614C530.044,418.731 530.382,416.53 531.037,414.615C532.06,411.623 533.095,408.615 534.954,405.998C538.321,401.259 542.927,399.938 547.526,402.369C552.161,404.818 553.748,409.277 552.077,414.604C550.889,418.388 548.424,421.245 545.736,423.805C545.781,426.284 547.793,426.925 549.134,428.015C551.909,430.269 554.114,432.938 555.565,436.185C556.636,438.58 556.528,440.778 554.993,443.174C552.191,447.547 549.524,450.707 544.463,451.529C540.413,452.187 535.066,447.106 534.473,445.916C531.579,440.112 527.259,437.211 520.459,437.934C512.189,438.812 505.222,435.958 499.598,429.656C497.535,427.345 495.535,424.806 492.28,423.171C485.296,429.507 478.297,435.849 471.832,442.769C464.343,450.786 456.557,458.529 450.222,467.568C447.737,471.114 446.287,474.872 446.382,479.18C446.81,498.728 455.652,515.157 472.057,526.71C473.351,523.743 473.674,520.699 473.656,517.566C473.626,512.566 473.515,507.561 473.708,502.568C473.973,495.761 478.685,491.118 485.457,490.705C486.62,490.634 487.792,490.714 488.955,490.653C492.765,490.451 497.255,492.041 500.222,489.957C503.653,487.545 500.126,483.188 500.564,479.622C501.013,475.965 502.096,472.865 504.559,470.19C507.059,467.474 510.113,466.525 513.619,467.604C517.234,468.717 519.503,471.183 520.291,474.966C521.121,478.949 520.511,482.925 520.274,486.893C520.101,489.798 521.256,491.048 524.075,490.395C527.609,489.576 531.063,490.501 534.507,490.826C538.565,491.209 541.81,493.22 542.853,497.562C543.824,501.604 541.297,504.156 538.692,506.545C533.781,511.051 527.888,510.414 522.17,509.058C513.634,507.034 505.276,509.757 496.824,509.483C494.583,509.41 494.274,511.229 494.28,513.018C494.302,519.684 494.38,526.351 494.341,533.017C494.326,535.523 495.511,536.499 497.886,536.872C507.893,538.442 517.946,538.489 527.506,535.221C545.146,529.191 561.214,520.567 574.652,507.039C592.969,488.601 614.998,476.002 640.319,469.734C655.693,465.928 680.711,469.187 702.024,477.737C709.891,480.893 715.302,483.638 720.612,488.84C723.79,491.953 724.032,495.491 722.406,499.379C720.852,503.093 717.976,504.696 714.06,504.327C693.283,502.369 674.682,509.256 656.749,518.573C641.58,526.455 631.077,539.572 620.161,552.144C614.043,559.189 607.951,566.246 600.968,572.97M651.745,496.474C664.774,490.379 640.096,490.802 637.114,491.712C626.372,494.987 616.218,499.558 606.998,505.989C594.144,514.954 583.079,526.208 570.461,535.408C543.028,555.408 513.349,564.612 479.676,554.534C475.974,553.425 465.6,549.441 456.138,541.114C440.44,527.299 428.271,509.875 426.11,488.286C424.93,476.501 427.011,466.632 435.175,456.687C439.906,450.924 445.533,445.858 450.423,440.184C467.516,420.349 487.213,403.057 505.14,384.029C511.316,377.473 519.079,372.462 528.322,371.093C534.551,370.17 540.911,369.823 547.217,369.781C570.707,369.621 594.199,369.673 617.691,369.689C626.192,369.694 633.721,366.979 640.256,361.642C650.407,353.354 651.117,346.332 643.036,336.008C642.625,335.484 642.234,334.927 641.744,334.484C630.576,324.382 617.697,316.832 602.59,316.608C574.63,316.194 546.647,315.655 518.664,317.099C501.368,317.991 486.338,324.117 472.393,333.759C461.327,341.41 452.822,351.762 443.402,361.166C423.486,381.047 403.45,400.793 384.324,421.462C361.979,445.608 353.496,473.327 359.243,505.936C364.174,533.916 377.953,556.409 399.528,574C432.964,601.26 471.627,608.417 513.198,599.915C540.432,594.344 563.197,579.36 584.194,561.794C600.458,548.188 613.067,530.946 628.259,516.245C635.431,509.304 641.651,504.891 651.745,496.474Z" style="fill:rgb(55,53,47);fill-rule:nonzero;"/>
    </g>
    <g transform="matrix(1.53358,0,0,1.53358,-252.123,-196.377)">
        <path d="M587.894,353.704C583.313,359.727 578.263,363.112 570.559,360.334C562.868,357.561 556.755,353.43 555.761,344.713C554.908,337.224 559.761,329.152 566.39,325.88C574.105,322.073 586.818,328.511 590.096,337.835C592.045,343.38 591.744,348.589 587.894,353.704Z" style="fill:rgb(55,53,47);fill-rule:nonzero;"/>
    </g>
    <defs>
        <linearGradient id="_Linear1" x1="0" y1="0" x2="1" y2="0" gradientUnits="userSpaceOnUse" gradientTransform="matrix(205.306,-334.796,334.796,205.306,306.694,665.667)"><stop offset="0" style="stop-color:rgb(85,177,116);stop-opacity:1"/><stop offset="0.52" style="stop-color:rgb(162,231,156);stop-opacity:1"/><stop offset="1" style="stop-color:rgb(190,250,171);stop-opacity:1"/></linearGradient>
    </defs>
</svg>
