<?xml version="1.0" encoding="UTF-8" standalone="no"?>
<!DOCTYPE svg PUBLIC "-//W3C//DTD SVG 1.1//EN" "http://www.w3.org/Graphics/SVG/1.1/DTD/svg11.dtd">
<svg width="100%" height="100%" viewBox="0 0 32 32" version="1.1" xmlns="http://www.w3.org/2000/svg" xmlns:xlink="http://www.w3.org/1999/xlink" xml:space="preserve" xmlns:serif="http://www.serif.com/" style="fill-rule:evenodd;clip-rule:evenodd;stroke-linejoin:round;stroke-miterlimit:2;">
    <path d="M29.4,27.6L2.5,27.6L2.5,4.5L29.4,4.5L29.4,27.6ZM2.5,27.6L29.4,27.6L29.4,4.5L2.5,4.5L2.5,27.6Z" style="fill:rgb(217,180,0);fill-rule:nonzero;stroke:rgb(49,78,85);stroke-width:1px;"/>
    <g>
        <g>
            <path d="M29.4,27.6L2.5,27.6L2.5,4.5L29.4,4.5L29.4,27.6ZM3.5,26.6L28.4,26.6L28.4,5.5L3.5,5.5L3.5,26.6Z" style="fill:rgb(217,180,0);fill-rule:nonzero;"/>
            <path d="M6.077,19.316L5.522,18.484L10.366,15.255L5.479,11.184L6.12,10.416L12.035,15.344L6.077,19.316Z" style="fill:rgb(217,180,0);fill-rule:nonzero;"/>
            <rect x="12.7" y="18.2" width="7.8" height="1" style="fill:rgb(217,180,0);fill-rule:nonzero;"/>
            <rect x="2.5" y="5.5" width="26.9" height="1.9" style="fill:rgb(217,180,0);fill-rule:nonzero;"/>
        </g>
    </g>
</svg>
